/* XPM */
static char *_d55eabe33a64b9fa45307bbfde5d398qjPq5OcIzw1W9pjp[] = {
/* columns rows colors chars-per-pixel */
"50 50 89 1 ",
"  c #000001",
". c #070009",
"X c #09000D",
"o c #0E0014",
"O c #100016",
"+ c #15001E",
"@ c #170020",
"# c #1A0024",
"$ c #1E0029",
"% c #21002D",
"& c #250033",
"* c #280036",
"= c #2C003B",
"- c #30003F",
"; c #340045",
": c #360048",
"> c #38004B",
", c #3F0154",
"< c #400255",
"1 c #44005C",
"2 c #48015F",
"3 c #470061",
"4 c #490065",
"5 c #4C0069",
"6 c #51006C",
"7 c #550074",
"8 c #580177",
"9 c #590079",
"0 c #5E0081",
"q c #610182",
"w c #640884",
"e c #67048A",
"r c #69058D",
"t c #670889",
"y c #69088B",
"u c #680A8A",
"i c #690A8A",
"p c #680C89",
"a c #6A0D8B",
"s c #6A088D",
"d c #6B088E",
"f c #6C0A8E",
"g c #6B0C8C",
"h c #690090",
"j c #6D0591",
"k c #6C0890",
"l c #6D0A92",
"z c #6F0A93",
"x c #700696",
"c c #720A97",
"v c #73039B",
"b c #73069B",
"n c #75079C",
"m c #740A9A",
"M c #76099D",
"N c #760B9E",
"B c #7906A3",
"V c #7A14A0",
"C c #7E18A4",
"Z c #7F18A4",
"A c #8018A5",
"S c #8511AF",
"D c #8118A8",
"F c #902BB6",
"G c #9934BF",
"H c #A83FCF",
"J c #A541CA",
"K c #A842CE",
"L c #AB42D2",
"P c #B248DA",
"I c #BE59E5",
"U c #BF5DE4",
"Y c #BF5CE6",
"T c #C05BE6",
"R c #C05DE4",
"E c #C15DE7",
"W c #C15EE7",
"Q c #C157EA",
"! c #C159EA",
"~ c #C259EB",
"^ c #C563EB",
"/ c #C662EB",
"( c #C563EC",
") c #C763EC",
"_ c #C764EC",
"` c #CA69F0",
"' c #CE6DF3",
"] c #CE6DF4",
"[ c #D77BFB",
/* pixels */
"o@%=-;:::::::::::::::;::::;;:;;;;;;;:;;;:;:;;=&$+o",
"@&;><1311111111111111111111111111111111111111<:=%+",
"%;10yzzdddfidtdtdtdptddtdptttidtittpiititddkft9,=#",
"=>z])))/////^^^^^^^^^^(((^(((^^^^^(((^))()))(`W9>*",
";1A)BMmzfiiitiiittpuuuuuptiiiiidpddpiaddzzcMNS!g,=",
";1AYe096511111111111111111111111111111113379qv!g1;",
":3DEr971<:;;;;;;;;;;;;;;;;::::;;;;::;;::>,379v~g1;",
">3DEq61;=%%$$@%#$$$$#$$$$$$$$$$$$%$$$$$%&;>37z~z1;",
">3AE05>*@+oOoooooooooooooooOoOoOoOoOoOO++$=<5r!p1:",
">1CE91;%+X................ ..  . ..  . XX+&>3d!g1;",
">1CU91;%o.                             .XO%;1d!i1;",
";1CU71=#o.                              .O$;1e!g1;",
">1AU81;@o                               .o@;1tQp1;",
">1CU91=#o.                              .o%;1e!i1;",
">1AU71=#o.                              .O#;1iYp1;",
">1AR91;+X                               .o%;1e!p1;",
">1CU81;#o                               .o$;1dQg,;",
">1CU81=#o.                              .o#;1e!i3;",
">1CU81=#o                               .o&;1t!p1;",
">1CU81;#o                               .o$;1eEg1;",
">1CU91=#o.                               o%;1pEi1;",
">1CU71;@o                               .o@;1t!i1;",
">1CU91;#o                               .o#;1e!p<;",
">1CU71=#o.                              .o&;1d!i3;",
">1CR91=@o                               .o$;3eUg<:",
">1CU71;#o                               .o$;1hYt1;",
">1CU8<=#o                               .o$;1eYz1;",
">1CE91;#o.                              .o$;3eUp<:",
">1CU91=#o                               .o$;3eYt1;",
">1CU81;#o.                              .o$;1eYd1;",
">1CU81-@X                               .o$;1eUp1;",
">1AR81-#o.                              .o$;3hUp1;",
">1CR91=#O                               .o$;<pEg1;",
">1CU71;@o.                              .o$;2pEp1;",
">1AU91;#o                               .o$;1t!g1;",
">1CU91=#o                               .o$;1t!i1;",
";1AU91=#o                               .O$;1e!i1;",
">1CU91;#o.                              .o$;3tUp1;",
">1AU7,;#o                                +$;1e~d1;",
">1AR91=@o.                              .o$;1t!p1;",
">1ZU91;$oX          .             .    .X+%>1e!p1;",
">1AU93:&+ooXoXXoXXXXXXXXXXXXXXXXXXXXXXXoo+*>5d!g1;",
">1DE061=%#@+++++@@@@@@@@@@@@@@+++++++++@#&;<6j!f1;",
">3DYe84,;=====*=*******==********=******=:,57x!g1;",
">3DEh09531,,<,,,,,,,,,,,,,,,,,,,,,,,,,,,<1699M!z1;",
";1DYe007554544444444444444444444535343545670qv!g,;",
"=<V[LLLKKKJJJJJJJJJJKJJJJJJJJJJJJJJJJJJJJJKKKP'w,*",
"&;8GJJJJKJJJJJJJJJJJJJJJJJJJJJJKJJJJJJJJKLKJHJF5;%",
"$=:,455544444444444444444444444435444445555554,:*#",
"+$&;>,,,,,,<,,<<,,<,,,,,<<,,<<<<,,,,<<,,,1,,,>;*$O"
};
