/* XPM */
static char *result[] = {
/* columns rows colors chars-per-pixel */
"100 50 83 1 ",
"  c #000000",
". c #06000A",
"X c #09000C",
"o c #000717",
"O c #0C0011",
"+ c #000719",
"@ c #00081B",
"# c #110017",
"$ c #14001C",
"% c #000C27",
"& c #000D2D",
"* c #170020",
"= c #190023",
"- c #1E0029",
"; c #000D31",
": c #001034",
"> c #001139",
", c #22002E",
"< c #260033",
"1 c #280036",
"2 c #2C003B",
"3 c #01194D",
"4 c #011A53",
"5 c #00165E",
"6 c #021C59",
"7 c #320143",
"8 c #36004A",
"9 c #3B014E",
"0 c #3E0152",
"q c #1D2F5D",
"w c #001762",
"e c #001867",
"r c #00186A",
"t c #1F3263",
"y c #223564",
"u c #410155",
"i c #44005C",
"p c #470062",
"a c #490065",
"s c #4C0069",
"d c #52016F",
"f c #540071",
"g c #570078",
"h c #5A007C",
"j c #60087F",
"k c #5D0082",
"l c #600182",
"z c #630B83",
"x c #6A0E8B",
"c c #742C8F",
"v c #792E95",
"b c #7B3396",
"n c #375CB6",
"m c #395EBA",
"M c #3D63C4",
"N c #3E66CA",
"B c #4368C4",
"V c #446AC8",
"C c #436CD7",
"Z c #4A73D8",
"A c #8D29B2",
"S c #902BB5",
"D c #922BB8",
"F c #9336B5",
"G c #9636B9",
"H c #9937BD",
"J c #9539B8",
"K c #9A39BF",
"L c #9E33C6",
"P c #9D3BC2",
"I c #A03BC5",
"U c #A233CC",
"Y c #A53CCC",
"T c #A737D2",
"R c #A93DD2",
"E c #A143C4",
"W c #A640CC",
"Q c #A946CE",
"! c #AC45D2",
"~ c #AE48D4",
"^ c #B049D7",
"/ c #CA64F1",
"( c #CF6CF5",
/* pixels */
".O#=,,<1112<12111111112112111<<<1<1<12<2-      +>:::>+     121111112<121121111<11<1<11<<<1<<<<,-*#O.",
"O$,289uuuu000000u0000u000000000uu00000002      &64436&     00u00000u000000000000000000u0u0u000981-$.",
"#-79iasssasaaasaaaaaspspaaaaaappspapspas8      ;rwwwr;    .isasaaaaasspaaasaaappspspppsaaaasssau97-#",
"=29xYWWRQWWWWWWWWWWWQWWWWWWWWWYYWWWWWWY~v      tCMMMCt    .EWWWWWWWWWWWWWWWQWWYWWWWWWWWWWYWWWWWIk91*",
",7iG/LYPPPKKPPHPKKKKKKKKPPHPPPPPPPPPPPHYc      qNnmnMq    .FPPHPPKKKKKKKPPPHPPPHPPKPPPPPKKIIYYU/A07-",
",9pHUklgssppppppaippppppppppppppppppppps9      ;e555e;     papppiappppppaipppppppppppppaaasdglkTFp9-",
"<9aPTkhdau0090999999999990009099990990902      %43334%     00999999999099099909090900900uuusfjlRDa0-",
"<0aPYgfi82<<<<-<<<<,<<<<,,<<<<<<<<<<<<<2-      +:&&&:o     <<<,<,<<,<<<<,,<<<<<<<<<<<<<<1228ifhRDp0<",
"<0pPYfa81-$$$#$##$##$##$##$###$###$$#$#$#      .+o++@.     *$##$#$##$###$#####$###$##$#$$$,19sfWDp0<",
"10aHYsi2-#XXX..X..XX.X..XX..XX..X....XXOX       .....      XXX.X..X..X.X.XX.XX.....X..X.XX#-2idYAi0<",
"<0pKIsi1$O.                            ..                  .                             .O*2usYDp0<",
"<0pHYs0<$X.                                                .                             .X*2usRAp0<",
"<9pKIs02$X                              .                                                 O*1usYDp0<",
"10pKYau<*X.                                                .                             .X$1usYAa9<",
"<0pKIs01$X                              .                  .                              O*1usYSp9<",
"<9pKYsu1$O                                                 .                              X*1usRSp9<",
"19pKYau1$O                                                 .                              X=1usYSp0<",
"<0aHIau1$X                              .                                                 O$1usRSi9<",
"10pKYau1*X                                                 .                             .O$1usYSp9<",
"<9pKIau1$O                              .                  .                              X$1usWSp9<",
"10iKUau1$X                                                 .                              X$1usYSp9<",
"19aHYau1$X.                                                                              .O$1usRSp9<",
"19aHIau1$O                              .                  .                              X$1usRSp9<",
"19aHYau1$O                                                 .                             .X=1usYSp9<",
"<9aHUsu1$X                              .                  .                              X*1usYAp9<",
"19aHIsu1$X                                                                               .X*1usYSp9<",
"19iKIsu1$X.                             .                  .                              X$1usRSp9<",
"19aKIau<$X                                                 .                             .X*1usRSp9<",
"19aHIsu1*X                              .                  .                              X*1usYSp9<",
"19aKIsu<$X.                                                                              .X*1usWSp9<",
"19aKYau1$X.                             .                  .                              X*1usRAp9<",
"<9iKUsu1*X                                                 .                             .X$1usYFp9,",
"<0pKYau1$X.                             .                  .                              X*1usYAp9<",
"19pHIau1$X                                                                                X*1usYAp9<",
"<9pKUsu1$X                              .                  .                             .X$1udRDp9<",
"<0aHYa01$X.                                                .                             .X*1usYAp9<",
"10aHIs01$X                                                                               .X$1usYDp9<",
"<9iKYau1$O                              .                  .                              X$1usRDp9<",
"19aKYa01$O.                                                .                             .X*1usWSp9<",
"19aKYsu2*O.  .                         ..                  ..          .       .    .    XO*2usYSp9<",
"19aHYsi2-#O.....X...XX.........XXX..XX.OX       ......     OOX..........X.XX.....XXXX..XXO#-7idRSp0<",
"<0aPUfs91-*$$*$*$$$$$$$$$*$$$$$$*$$$$$$*#      .%@@+@.     $*$$$***$$*$*$$$$$$$$$$$#$$$$$*-18sfRFp0<",
"<0aHRhfi972211111112<21111111<1<<<<<<<12-      +::::>@     2212<111111111111<<111<<<<11<<278ifgRDa0<",
"<9aPRllfap0000000000000000000000000000002      &63336%    .0u00000000000000000000000000000iaflkRDp9,",
",9pPUklhfssaaaaaaaaaaaspaaaaaaaasapspsps9      ;r5wwr;    .asaaaaaaaaasaaaaaaaaaaappspaaassfgkkTDp9-",
"-70G(!^~~~QQQQQQQQQQQQQ~QQQQQQQQQQQ!QQQ^b      yZBVBZt    .E~QQQQQQQQQQQQQQQQQWQQQQ~QQQQQQQ~~~!(A07-",
"*29zHPPIPPPPEPPPPPPPPPPPPPPPPPPPPPPPPPPWc      qNmmmVt    XJPPPPPPPEPPPPPPPPPPPPPPPPPPPPPPPIIPPHh92*",
"O-290paapapppppppapppppppppaapppppppppps8      ;r5w5e:     iappppppppapppppappppppappppapaaaasai92-O",
"O#-279090009090900999099099000000000000u2      %63336%    .99u990009099990090000000000000000u9972-$O",
".XO*=<,<<<,<<<<<<<<<<<<<<<<<<<<<<<<<1111=      o:&:&:o     ,<,<1<<<<<<<<<<<<<<<<1<<<<<<<<<<<<<,-$#X."
};
