/* XPM */
static char *result[] = {
/* columns rows colors chars-per-pixel */
"50 50 173 2 ",
"   c #010000",
".  c #0B0000",
"X  c #130000",
"o  c #1B0100",
"O  c #230201",
"+  c #2B0400",
"@  c #320500",
"#  c #3B0600",
"$  c #340801",
"%  c #3B0A00",
"&  c #410600",
"*  c #440A00",
"=  c #4C0D00",
"-  c #550300",
";  c #5C0300",
":  c #510D00",
">  c #5D0D00",
",  c #4D1000",
"<  c #541200",
"1  c #5B1400",
"2  c #640300",
"3  c #6B0200",
"4  c #630B00",
"5  c #6C0B00",
"6  c #730200",
"7  c #7C0200",
"8  c #720B00",
"9  c #780D00",
"0  c #631300",
"q  c #6C1300",
"w  c #611900",
"e  c #6B1A00",
"r  c #741300",
"t  c #7B1300",
"y  c #731B00",
"u  c #7B1D00",
"i  c #762100",
"p  c #7B2300",
"a  c #850100",
"s  c #8B0100",
"d  c #910101",
"f  c #9D0102",
"g  c #871500",
"h  c #841A00",
"j  c #8B1B00",
"k  c #921D00",
"l  c #A40102",
"z  c #AD0104",
"x  c #B40104",
"c  c #BD0006",
"v  c #842400",
"b  c #882400",
"n  c #842A02",
"m  c #8D2B01",
"M  c #952300",
"N  c #9A2500",
"B  c #952D02",
"V  c #992F00",
"C  c #8D3207",
"Z  c #933205",
"A  c #9B3602",
"S  c #97380B",
"D  c #9C3D0C",
"F  c #A02700",
"G  c #A42B00",
"H  c #AA2C00",
"J  c #A73100",
"K  c #A93401",
"L  c #AD3C01",
"P  c #A83C06",
"I  c #A13709",
"U  c #A63B0A",
"Y  c #B33800",
"T  c #C40005",
"R  c #CD0006",
"E  c #D30007",
"W  c #DD0008",
"Q  c #E40009",
"!  c #EE0009",
"~  c #FE0302",
"^  c #FE0905",
"/  c #F3000A",
"(  c #FE000B",
")  c #FF0F0D",
"_  c #FF110E",
"`  c #FF1613",
"'  c #FF2927",
"]  c #FF2A27",
"[  c #FF312E",
"{  c #FF3331",
"}  c #FF3E3B",
"|  c #A3430C",
" . c #B44603",
".. c #BE4807",
"X. c #B3460C",
"o. c #B44C0E",
"O. c #A34411",
"+. c #AA4713",
"@. c #A54815",
"#. c #AC4911",
"$. c #B24B12",
"%. c #BB4E11",
"&. c #AC501A",
"*. c #B45216",
"=. c #BB5516",
"-. c #B3561B",
";. c #BA541A",
":. c #B8581E",
">. c #B95920",
",. c #D25908",
"<. c #C35313",
"1. c #C45B17",
"2. c #CD651E",
"3. c #C75F22",
"4. c #C86627",
"5. c #C3652A",
"6. c #CA6B2B",
"7. c #D96D25",
"8. c #D26B29",
"9. c #CA7231",
"0. c #D77937",
"q. c #D47B3B",
"w. c #FF4543",
"e. c #FF4C4A",
"r. c #FE5351",
"t. c #FF5A58",
"y. c #FF615F",
"u. c #FF6361",
"i. c #FF6D6B",
"p. c #FF7472",
"a. c #FF7C7B",
"s. c #E0823C",
"d. c #DB8444",
"f. c #D7874B",
"g. c #DC8648",
"h. c #DE8B4C",
"j. c #E18D4F",
"k. c #E49354",
"l. c #E49659",
"z. c #E6995C",
"x. c #E89B5C",
"c. c #E79C61",
"v. c #EBA164",
"b. c #ECA469",
"n. c #EFA96D",
"m. c #EDAA74",
"M. c #F1AE72",
"N. c #F3B177",
"B. c #F2B27A",
"V. c #FE8E8C",
"C. c #FE9797",
"Z. c #FE9C9B",
"A. c #F5B982",
"S. c #F6BE89",
"D. c #FEA5A3",
"F. c #FEABAA",
"G. c #FEB0AF",
"H. c #FEB8B7",
"J. c #FEBCBB",
"K. c #F7C18C",
"L. c #F8C38E",
"P. c #F9C592",
"I. c #FAC998",
"U. c #FEC5C4",
"Y. c #FECACA",
"T. c #FFD0CF",
"R. c #FED4D4",
"E. c #FFDFDE",
"W. c #FEE4E4",
"Q. c #FEEAEB",
"!. c #FEF5F5",
"~. c #FEF7F8",
"^. c #FEFEFE",
/* pixels */
"                                                                                                    ",
"                                                                                                    ",
"                                            .                                                       ",
"                                          .       . .                                               ",
"                                .     . . . . . . . . . . .                                         ",
"                        .     . . . . . X . . . . . . X X . . . . . .                               ",
"                          . . . . X X X X o O + + o o X X X X X . . .   .                           ",
"                        . . . X X o o o + , p m v 1 $ O @ $ + o X X . . . . .                       ",
"                    . . . . X X O + + + = D j.x.x.&.< = n A v < + X X . . . .                       ",
"                  . . . X X o @ 1 v p > > #.z.b.j.+.4 y 9.N.l.*.1 + O o X X . . .                   ",
"                  . . X o o + e %.j.d.b > r N F k 5 - q I 0.b.q.y = < : + X X . .                   ",
"                . . X X o + # m z.m.4.h ; 2 3 5 5 2 ; 2 8 g M v 4 p 5.*.p $ X X . .                 ",
"              . . X X + = 1 > u U H g 8 2 2 2 2 3 3 3 3 3 2 4 ; - b g.S.2.i + X X .                 ",
"              . . X o 1 P 6.Z 4 5 5 5 3 s z z z l s a 7 6 6 3 2 ; r Y k.A.#.* o X X . .             ",
"            . . X o % V k.M.K 5 2 2 a E / ( ( ( ( / Q R l a 6 6 2 2 t J 5.D * O X X .   .           ",
"            . X X O = =.A.8.k 5 3 l / ( ( ~ ( ~ ~ ( ( ( ( / T f 7 2 5 5 q > = * + o . .             ",
"            . X o O = S ;.k 9 3 f ( ( ~ ^ ~ ~ ~ ~ ^ ^ ~ ~ ( ( ( Q z 3 2 - > C | e + . . .           ",
"        . . . X O @ * > 5 5 3 s / ( ~ ^ ~ ~ ` ) ~ ~ ~ ~ ~ ^ ~ ~ ( ( c 2 - 5 3.M. ., X . .           ",
"          . X X $ y v 4 - 2 3 R ( ~ ^ ~ { U.Q.W.J.C.y._ ~ ~ ~ ^ ~ / ( d ; 8 ..L.d.i o . .           ",
"        . . . O e 6.d.h 2 3 s ( ( ~ ~ [ !.^.^.^.^.^.^.Q.D.e.) ~ ^ ~ ( c 2 5 N d.z.i + . . .         ",
"          X X $ B b.l.k 5 3 x ( ~ ~ ~ U.^.~.^.^.^.~.~.^.^.^.W.} ~ ~ ( T 3 2 5 B D < o X .           ",
"        . . X % L K.8.g 3 6 E ( ~ ~ w.^.^.~.W.W.~.^.^.^.~.~.^.i.~ ~ ( R 3 2 - > 1 * O X . .         ",
"        . . X $ S k.P 9 3 a / ~ ^ ~ a.^.^.T._ ^ [ p.H.^.^.~.^.i.~ ^ ( R 6 2 - 0 Z C % X . .         ",
"        . X X + w m r 2 3 s ( ( ~ ~ F.^.^.Y.~ ~ ~ ~ ~ w.Q.^.^.i.~ ^ ( E 6 3 2 j d.d.e o . .         ",
"        . . o O # : - 2 3 d ( ~ ~ ^ Y.^.^.Y.^ ~ ^ ^ ~ ) Q.^.^.u.~ ~ ( R 6 3 4 N v.c.p o . .         ",
"      . . X X @ 1 y ; ; 3 d ( ( ~ ^ Y.^.^.J.^ ~ ~ ^ ~ i.^.~.^.e.~ ~ ( T 6 3 2 N x.k.y o . . .       ",
"        . X o : -.4.j 2 3 s ( ~ ~ ~ J.^.^.H.~ ~ ~ ^ ~ D.^.^.!.` ~ ~ ( T 6 3 - r :.&.* X .           ",
"        . . X e s.A.Y 8 2 s / ( ^ ~ Z.^.^.E.r._ ~ ~ _ Q.^.^.R.^ ~ ~ ( z 3 2 - - w , + X . .         ",
"      .   . o 1 2.I.%.9 2 7 ! ( ^ ~ u.^.~.^.^.Q.H.u.p.^.~.^.V.~ ^ ~ / s 5 ; ; 0 > $ o . . .         ",
"        . . X % A q.I 4 2 3 E ( ~ ~ ^ U.^.~.~.^.^.^.^.~.^.~.' ~ ^ ( Q 7 3 2 t $.-.< o X .           ",
"        . . X o = y 0 - ; 2 l ( ~ ~ ~ ` H.^.^.^.^.^.^.^.^.u.~ ^ ( ( x 6 2 5 G c.f.w o . .           ",
"          . X X O % 4 r 5 3 6 E ( ~ ^ ~ ~ t.G.Q.~.!.!.Y.y.~ ~ ~ ( ! a 3 ; 5 %.S.;., X . .           ",
"          . X X o * U 6.J t 3 a ! ( ( ^ ^ ~ ~ ` ' ] ` ^ ~ ~ ^ ~ ( z 3 2 - 4 O.9.p @ X .   .         ",
"          . . X X = o.L.0.G 8 3 d ! ( ( ~ ^ ^ ~ ~ ~ ~ ^ ^ ~ / ( T 3 3 4 q y e w % X . .             ",
"            . . X $ v s.I.<.9 3 3 a E ( ( ( ~ ~ ~ ^ ~ ( ( ( ( T 6 3 8 k ..5.p + o X .               ",
"            . . X o , A j.5.8 - 2 3 3 f R / ( ( ( ( ( ( / W z 3 3 5 N ,.B.b.n + X X .               ",
"            . . . X o = y y : - 5 8 3 3 3 a f z x x x l a 6 2 2 - 9 <.L.M. .< o X . .               ",
"              . . X X o + $ # u X.Y k 9 3 3 3 3 3 2 2 3 2 5 8 8 4 q >.g.L w + X . .                 ",
"                . . X X o O # B v.B.7.H 8 ; 2 6 6 5 2 ; 5 j Y <.I 0 0 e = O X . . .                 ",
"                  . . X X o + w X.k.P.q.u 4 h G H N t 4 j 8.N.L.6.1 @ O o X . .                     ",
"                    . . X X o + 1 B $.@.0 0 ;.v.n.k.+.0 b f.l.1.v % O X X . . . .                   ",
"                      . . . X X o $ * & # : O.g.z.h.O.: , y y 1 $ o X X . . .                       ",
"                          . . X X X o o o + = y h y = + O + O o X X . . .                           ",
"                      .     . . . . X X X o o o O o o o o X X X X . . . .                           ",
"                          .   . . . . . . X X X . X X X X . . X . .                                 ",
"                                    . . . . . . . . . . . . .                                       ",
"                                  .         .     .     .           .                               ",
"                                        .           .                                               ",
"                                                                                                    ",
"                                                                                                    "
};
