/* XPM */
static char *result[] = {
/* columns rows colors chars-per-pixel */
"50 50 96 2 ",
"   c #020000",
".  c #0B0001",
"X  c #130002",
"o  c #1B0002",
"O  c #230003",
"+  c #2B0004",
"@  c #330005",
"#  c #3B0006",
"$  c #430007",
"%  c #490007",
"&  c #470008",
"*  c #4D0008",
"=  c #540009",
"-  c #59000A",
";  c #63010C",
":  c #6C030C",
">  c #75010D",
",  c #7C000E",
"<  c #7B0110",
"1  c #81000E",
"2  c #8C040D",
"3  c #92040D",
"4  c #9E060D",
"5  c #840210",
"6  c #8A0311",
"7  c #950411",
"8  c #9E0510",
"9  c #A5050D",
"0  c #AA060E",
"q  c #AF080F",
"w  c #BC050C",
"e  c #B0080F",
"r  c #BE090F",
"t  c #A50611",
"y  c #B60911",
"u  c #BD0810",
"i  c #C4040C",
"p  c #CB050C",
"a  c #D4040A",
"s  c #DB050A",
"d  c #D4080E",
"f  c #DA080E",
"g  c #C00810",
"h  c #E3050A",
"j  c #EA050A",
"k  c #E2090D",
"l  c #F1060A",
"z  c #F5090D",
"x  c #FC0A0D",
"c  c #FD0D11",
"v  c #FF1215",
"b  c #FF171A",
"n  c #FF1A1D",
"m  c #FF1E21",
"M  c #FF2124",
"N  c #FF2729",
"B  c #FF2A2D",
"V  c #FF3235",
"C  c #FF373A",
"Z  c #FF3A3C",
"A  c #FF3E40",
"S  c #FF4345",
"D  c #FF4B4D",
"F  c #FF4E50",
"G  c #FF5255",
"H  c #FF5B5D",
"J  c #FF5E60",
"K  c #FF6364",
"L  c #FF6669",
"P  c #FF6B6C",
"I  c #FF7274",
"U  c #FF7778",
"Y  c #FF7A7B",
"T  c #FF7E80",
"R  c #FE8385",
"E  c #FF8789",
"W  c #FF8A8C",
"Q  c #FF8E90",
"!  c #FE9A9C",
"~  c #FEA5A6",
"^  c #FFA7A8",
"/  c #FDABAD",
"(  c #FEAFB0",
")  c #FDB1B3",
"_  c #FFB7B9",
"`  c #FDBABC",
"'  c #FEC1C2",
"]  c #FEC7C8",
"[  c #FECBCC",
"{  c #FDD4D5",
"}  c #FDDBDB",
"|  c #FDDFE0",
" . c #FDE4E4",
".. c #FDECEC",
"X. c #FDF2F3",
"o. c #FEFFFF",
/* pixels */
"                          . . . . . . X X X X X X X X X X X . . . . . . .                           ",
"                    . . . . . . . X X X X o X o o X X o X X X X . X . . . . .                       ",
"                      . . . X X X o o o o o o O o O o o o o o o o X X . . . .                       ",
"                . . . X . X X o o o o O O O O O O O + O O O O O o o X X X X . . . .                 ",
"              . . . . X X o o O O O O + + + + @ + + + + + + + O O O o o X X X . . . .               ",
"            . . . X X X o o o O O + + @ @ @ @ # # # # # @ @ @ + + + O O o o X X X . .               ",
"          . . . X X o o O O O + @ @ # # # # $ # $ $ $ # # # # @ @ @ + + O O o o X X . . .           ",
"          . . X X o o O O + @ @ # # $ $ % % * * * * * * * & & $ # # @ @ + O O o o X X . . .         ",
"      . . . X X o O O + @ @ @ $ $ $ * = = = = = = = = = = = * * % $ # # @ + + O O o X X . . .       ",
"      . . X X o O O + + @ # $ $ * = = = = - - : : > : ; - = = = = * % $ # @ + + O o o X X . .       ",
"  . . . . X X O O + @ @ # $ % * - = = ; 3 w a h j j j s i 4 > = = = * $ $ # @ @ + O O o X . . .     ",
"    . . X o o O + @ # # $ % = = = : 9 k v B G I R W Y H Z n z r > - = = * $ # # @ + O o X X . . .   ",
"  . . X X o O O @ @ # $ % = = - 3 k n J /  .X.o.o.o.o.o...' Y B l 0 ; * = % $ # @ @ O O o X X . .   ",
". . . X o o O + @ # $ % = = - e x F ` X.o.o.o.o.o.o.o.o.o.o.o.{ I b d : = = % $ # @ + O o o X . . . ",
". . X X o O + @ # $ % = = - r v I X.o.o.o..._ W Y I R ^ } o.o.o.o.~ M k : = = $ $ # @ + O o X X . . ",
". . X o o O + # $ $ * = = e v R o.o.o. .R Z v l j j j c N L ] o.o.o.` N d ; = * & $ @ + O o o X . . ",
". X X o O + @ # $ * = = 3 c U o.o.o.) Z x p 9 7 6 5 6 t w j M R X.o.o.) m w = = = & # @ + O o X X . ",
". X o o O + @ $ % = - : k D X.o.o.! b s 7 , , , 1 < , < < 6 p x L X.o.o.R c 2 = = % $ @ + O O X X X ",
"X X o O + + # $ * - = 0 n ` o.o.) n f 5 , 1 , , , 1 1 1 1 , < y x Y o.o...Z f - = * $ # @ O O o X . ",
"X X o O + @ # % = - : k K X.o.| C f 5 , 1 1 , , , , , , , 1 < < g v ( o.o.! c 2 = = & # @ + O o X X ",
"X X o O + # # % = = 3 v / o.o.R x 7 , 1 , , , , , , , , , 1 1 , 5 s S X.o. .V w = = % # @ @ O o X X ",
"X X O + + @ $ % - - w V  .o...V p , 1 , , , , > > > > , , , 1 1 < q v ( o.o.L s ; = % $ # + O O o X ",
"X o o + + # $ * - ; a G o.o.) v t , , , , , > > > > > > , , , 1 , 6 l I o.o.! l , = * $ # @ O o X X ",
"X o O O @ # $ = = : h I o.o.W l 7 , , , , , > > > > > > , , , , 1 < a D X.o._ b 2 = = $ # + + O o X ",
"X o o + @ # $ = = > j W o.o.I j 2 1 , , , > > > > > > > > , , , 1 < p A  .o.] m 3 = = $ # + + o o X ",
"X X O + @ # $ * = > j Q o.o.P j 1 , , , , > > > > > > > > > , , 1 , p Z  .o.[ M 3 = = $ # @ + O o X ",
"X o O + @ # $ = - > j T o.o.R j 2 , , , , > > > > > > > > , , , 1 < d S X.o.` n 2 = = $ # @ + O o X ",
"X o O O + # $ * = ; s K o.o.~ x 9 , 1 1 , > > > > > > > , , , , , 5 h K o.o.^ c , = = $ @ @ O O o X ",
"X o o + @ # $ * - - i Z ..o.} N w , , , , , > > > > > , , , , , , 8 x ! o.o.Y h : = = $ # @ O O X X ",
"X X O O + @ # * = = 9 n ' o.o.L j 2 , , , , , > , > , , , , , 1 , d B } o.X.S p - = * # @ + O o o X ",
"X X o O + @ # * = - > z Y o.o.' m i , , 1 , , , , , , , , , 1 , 9 x E o.o._ b 4 = = % # @ + O o X X ",
"X X o O + @ # $ * - - i B } o.o.R x y < , 1 , , , , , 1 1 1 , 3 j D X.o.o.H j : = = % # @ + O o X X ",
". X o o + @ @ $ % = = , x I o.o.X.K x u 5 , < 1 1 1 , 1 , < t l Z { o.o.( b 0 = = * $ # + + O o X . ",
". X o o O + @ $ $ = - - q b / o.o.X.I v h t 5 < < < < 5 8 p x D { o.o.} Z f ; = * % $ @ + O o X X . ",
". X X o O O @ # $ * = - ; d M ` o.o.o.( S v l s i i a j c B R X.o.o...D z > = = * $ # @ + O o X . . ",
". . X X o o + @ # $ * = = : k B ) o.o.o...) I F A Z D L ! } o.o.o.} D x 2 = = * $ # @ + O o X X . . ",
". . X X o o O @ # # $ * - - > f M E ..o.o.o.o.X. . ...o.o.o.o.o./ Z z 3 = = * & # # + + O o X X . . ",
"  . . X X o O + @ # $ % * = = ; r c Z ! ..o.o.o.o.o.o.o.o.X._ H b s , = = * % $ # @ + O o X X . . . ",
"    . X X o o O + @ # # % * = - - 3 s x V P ! ` [ [ ' / R S v j 9 ; = = = & # # @ @ + o o X . . .   ",
"  . . . X X o O + + @ # $ % * = - = ; 2 w s z b m m n v h p 4 : = - = * & $ # @ + O O o X X . . .   ",
"    . . . X X o O + + @ # # $ * = = - = - : , 2 3 3 2 , : - = = = = * & $ # @ @ + O o o X . . .     ",
"      . . X X o o O + + @ # $ $ % * = = - - - - - = = = - - = = * % & # @ @ + O O O X X . . .       ",
"        . . . X o o O + + @ @ # $ $ % * * = = = - = = = = * % % & # # @ @ + + O o o X X .   .       ",
"          . . . X X o o O O + @ @ # # $ $ $ $ $ % % & & & $ $ # # @ @ + O O o o X X X . . .         ",
"            . . X X X o o o O + + @ @ @ @ # # # # # # # # # @ @ @ + + O O o o X X . . .             ",
"            . . . . X X o o o O O + + + + @ @ @ @ @ @ # @ @ + + O + O o o X X X . . . .     .       ",
"              . . . X . X X X o o O O O + + + + + + + + + O O O O o o X X X X . . .                 ",
"                    . . . X X X o o o o o O O O O O O O o O O o o o X X X . . . .                   ",
"                      . . . . X X X X o X o o o o o o o o o o X X X X . . .   . .                   ",
"                      . .   . . . X X X X X X o X X o X X X X . X . . . . .                         "
};
