/* XPM */
static char *result[] = {
/* columns rows colors chars-per-pixel */
"50 50 83 1 ",
"  c #020200",
". c #060900",
"X c #090D00",
"o c #0D1300",
"O c #101700",
"+ c #131C00",
"@ c #172100",
"# c #1A2400",
"$ c #1E2A00",
"% c #212E00",
"& c #253300",
"* c #283700",
"= c #2A3B00",
"- c #2E4100",
"; c #314400",
": c #354A00",
"> c #384E00",
", c #3C5400",
"< c #3F5800",
"1 c #405700",
"2 c #435B01",
"3 c #476102",
"4 c #496502",
"5 c #4C6A02",
"6 c #547500",
"7 c #587700",
"8 c #577900",
"9 c #5A7C00",
"0 c #5D8100",
"q c #5E8A04",
"w c #608503",
"e c #618E04",
"r c #659605",
"t c #6A9604",
"y c #679805",
"u c #699B03",
"i c #6CA302",
"p c #6FA802",
"a c #70A402",
"s c #7BB506",
"d c #7EBF03",
"f c #7FC102",
"g c #82C607",
"h c #83C907",
"j c #87D304",
"k c #88D504",
"l c #8DDA07",
"z c #8EDC08",
"x c #8FE005",
"c c #91E305",
"v c #96EB05",
"b c #98EF07",
"n c #9AF205",
"m c #A5FE13",
"M c #A9FF17",
"N c #A6FC18",
"B c #ABFF1C",
"V c #AEFF24",
"C c #B1FF25",
"Z c #B2FF2C",
"A c #B5FF33",
"S c #B7FF38",
"D c #B8FF3B",
"F c #B9FF43",
"G c #C1FF52",
"H c #C5FF5F",
"J c #C6FF62",
"K c #C7FF6A",
"L c #C9FF6D",
"P c #CAFF70",
"I c #D4FF8D",
"U c #D6FF91",
"Y c #D9FD9F",
"T c #DAFDA1",
"R c #E5FEBD",
"E c #E6FDC4",
"W c #EAFDCC",
"Q c #EDFED3",
"! c #EEFED8",
"~ c #F3FDE5",
"^ c #F5FDE9",
"/ c #FAFDF6",
"( c #FFFEFF",
/* pixels */
"             .  ...XX.XXXXXXX.... .               ",
"             ...XXXooooooooooXXXX....             ",
"           ...X.ooooOOOOOO+oOooooXXX.             ",
"          ..XXoooOO+++@+@+@@@++OoooXXXX.          ",
"         .XXoooOO++###$$######@@++OOoXX..         ",
"        ..XooO+@@$$$$%$&&&&&$%$#@@+OoooXX.        ",
"      ..XoooO+@#$%%&***=*==***&%$$#++OooXX        ",
"      .XooO+@#$$&*==---;;----==*&&%$#+OOoXX..     ",
"     XXXoO@#$$**=--:::,,,,>,:::--=*%$#@+OoX.X     ",
"    ..oo+@#$%*==;:,,,,,,,,,,,,,>::==*%$@@OoXX..   ",
"   ..oOO@@$&*=-:,,<,26qupiuq6<,,,::==&%#@+OoX.    ",
"  .XXoO+#$&*=;::<,3ujvmVZZVmvjy3,,:;-=*%$@+oXX.   ",
"  .XXoO@$%*=;:,,2rxBGIRW!~QRIFVxr1,,;;=&%#+OoX..  ",
" ..XoO+@%*=;:,,5gmJE/((((((((/EJmg4,,;;=*$@+OoX.  ",
"..Xoo+#$&=-:,,5zCY((((^QERW^((((YVl5,>;-=%$@Ooo.. ",
"..XoO@#&*-:,,5zAE(((ELDBNNVDPR(((EAl4,,;=*%@+Oo.. ",
" XoO+#$*=:,12gVE((^KMbgattagvMK^((ECg1,>;=&$@+OXX ",
"XXoO@#$=;>,,ymT((!Fnsw779987wsnF!((Ymr,,:=*$@+OoX.",
"XXo+@$&=:,14cJ((^Fvt8900w90w97tbF^((Hc2,>-=%$+OoX.",
".oo+#%*=:,,uBE((Knt8009989990w7tnK((EBu,,:=%%@+OX.",
"Xoo@#%*->,3jG/(RMs909998889999w7sMR((Fj<,:=*%@+Oo.",
"XoO@#&=-,,6nU((Lvw99998888889909wvL((Ib6,>=*%#+OXX",
"XoO#$&=;,,qNR(^Dd70998666678899w8gD^(Rmq,>;*&#+OoX",
"oOO@$*=:,,iV!(QMa8999866666888906pVW(QVu,,;*&#@OoX",
"Xo+@%&=:11pZ^(ENt8998666666668809tMR(~Zi,,-=&#@+oX",
"oo+@$*=:,1pZ^(RNt9088766666667999tMR(~Zp,,;=&$@OoX",
"Xo+@$&=:,,iV!(QBa7098866666689908aBQ(WCu,>;=%#@OoX",
"Xo+@$&=;,,eNR(^Sg7099866666689907dD~(Rmq>,-=&#+Oo.",
"XOO@$&=;,,6nU((Jvw89998878899900qvK((Un6,>-*%#+OoX",
"XoO@#%*->12kG/(RMs80999888899908sNR(/Gk2,:=&%#+Oo.",
"XoO+#$*=:11iBE((Knt709999899908tnK((EBu,,:=*$@+oX.",
".Xo+@$&=;,14cK((^Fvt8009009008tvF^((Jc4,:;=%$@OoX.",
".XoO@$&=->,,uMT((!Dbsq779977wsnF!((TNy,,:-*$#+OoX.",
".XoO+#$*=:,,2hCE((^KMvdittagvMJ^((ECf2<>:-&$#Ooo..",
" .XoO@#%=-:,15zSW(((RKSBNNBSLR(((ESz4,,:-*$#+OoX..",
"..XoO+@$*=;:,15zCT((((~WRRW~((((TCz5,,:-*&$@+oXX. ",
" ..XoO+$%*=;>,,5hmJE/((((((((/EKmh5,,:-=*$#@OoX.. ",
"  .XoO+@$&==;>,13ycBGIR!~^!RIGBcy2,,:;=*$$@OooX.  ",
"  ..XoO+#$**-;>,,,3ikbmVZZVmnki4,1,:-==&$#+OoX..  ",
"  ...ooO@$$&*=;:,<<,36qippue61,,1>;;=*%$#+ooX..   ",
"    .XooO@#$&*=-::,<<,,<<<,,<<,>>:=**&$#@OoX.X    ",
"     ..oo+@#$%**--::>,,,,,<,,:::;==&$$@@+ooX.     ",
"     .XXooO@@#$%**==--:::::---==*%%$@@OOoo...     ",
"       .Xooo+@@$$%&**=*=====**&&%$$@+OOoo..       ",
"        .XXooO+@#$$$$&&&*&&&&$$$$@++OOoX..        ",
"         .XXooOO@@@###$$$$$$$##@++OOoXX...        ",
"         ...XXooOO++@@@#@@+@@@+OOOooXX..          ",
"          . .XXXoooOOO+O+++OOOOoooX.....          ",
"             .X.XXXooooooOoooooXXXX..             ",
"               ....XXXXXXXXXXX...  .              "
};
