/* XPM */
static char *result[] = {
/* columns rows colors chars-per-pixel */
"50 50 89 1 ",
"  c #010100",
". c #0B0B00",
"X c #0D0D0D",
"o c #131300",
"O c #1A1A00",
"+ c #121212",
"@ c #1B1B1B",
"# c #232300",
"$ c #272800",
"% c #2B2B00",
"& c #333300",
"* c #3B3B00",
"= c #232323",
"- c #2B2B2B",
"; c #323232",
": c #3C3C3C",
"> c #434300",
", c #474800",
"< c #4B4C00",
"1 c #525200",
"2 c #5B5C00",
"3 c #656600",
"4 c #6D6D00",
"5 c #737200",
"6 c #797701",
"7 c #7C7A01",
"8 c #444444",
"9 c #494949",
"0 c #535353",
"q c #5B5B5B",
"w c #636363",
"e c #6C6C6C",
"r c #757575",
"t c #7C7C7C",
"y c #817F01",
"u c #888500",
"i c #8C8900",
"p c #928E01",
"a c #9A9602",
"s c #9E9902",
"d c #A6A001",
"f c #AEA700",
"g c #B2AB01",
"h c #BEB501",
"j c #C4BB02",
"k c #D0C601",
"l c #D5CB01",
"z c #DDD400",
"x c #E5DB00",
"c c #E9DE00",
"v c #EEE500",
"b c #F0E700",
"n c #F4EA00",
"m c #FCF400",
"M c #FEFE01",
"N c #FFFF09",
"B c #FFFF12",
"V c #FDFE1B",
"C c #FCFD2A",
"Z c #FBFD40",
"A c #FCFE54",
"S c #FAFD5C",
"D c #FDFE75",
"F c gray53",
"G c #8C8C8C",
"H c gray59",
"J c #9B9B9B",
"K c #A4A4A4",
"L c #A9A9A9",
"P c gray71",
"I c #BCBCBC",
"U c #FDFE92",
"Y c #FCFE9A",
"T c #FDFEA9",
"R c #FDFEB2",
"E c #FCFDBC",
"W c #C3C3C3",
"Q c gray80",
"! c LightGray",
"~ c gainsboro",
"^ c #FDFECF",
"/ c #FDFED7",
"( c #E4E4E4",
") c #ECECEC",
"_ c #FDFEE5",
"` c #FDFEEA",
"' c #F2F2F2",
"] c #FDFEF3",
"[ c #FEFEFF",
/* pixels */
"                                                  ",
"                                                  ",
"                                                  ",
"                                                  ",
"                                                  ",
"                     XX   X    X.                 ",
"           X++X+++++++++++++++++++X++X            ",
"          +@-8wereeeeeeeeeeeeeeeeeeq8=+X          ",
"        X+-wI'[[[[[[[[[[[[[[[[[[[[[[(L0=+         ",
"        +;J[['QIIIIPIIIPIIIPIIIIIII![[)r-+        ",
"       +=H[]J0;--------------------:qP[]e@X       ",
"       @w[[t-@++XXXXXXXXXXXXXXXXXXX@@;K[(9@       ",
"      X-I[J-@                        @:W[G@X      ",
"      +8)'0@X                        X@r[Q;X      ",
"      +q[Q:+                          +0]):X      ",
"      +e[W;X          ......        . X8')9+      ",
"      Xe[W-+       ...oOOoOo...       X:''9+      ",
"      +e[W-X      ..OO%&&&%#Oo..      X8')9+      ",
"      +e[W-+     ..O$*,<11<,*%O..     X8')9+.     ",
"     .+e[W-X     .O%>25asp73<>%O..    X8''9+      ",
"      +e[W-X    .o$>2pcmmnxji2>$o.    +:''9+      ",
"     .+e[W-X    .O*<ubMZACMMmf<*#..   X8')9+      ",
"      Xe[W;X    o#>2jMS[[]ESMx4>#..   X8')9+.     ",
"      +e[W-X   .o%,5xM^/DR[_Vv6,%o.   X:''9+      ",
"      +e[W-X   .o%<7bB]YMMT`Vv7,%o.   X8''9+      ",
"      +e[W-+    o%<7bB]TMM^/Nx5<%o.   X8''9+      ",
"      +e[W-X   .o%,4xME[RU[YMl3,%o    +:')9+      ",
"      Xe[W-X   ..#*2hMCR`]EVMd2*#o    X8''9+.     ",
"     X+e[W-+    .o&,5lMMVCNMk4,%O.    X:''9+      ",
"      Xe[W-X    .o#*14gzvvxj41*#o     X8')9+      ",
"      +e[W-X     .o$*,24yy52,*#o.     X8')9+      ",
"      Xe[W;X     ..o#&*,<,,*&#o.      X8''9+      ",
"      +e[W-+       .oO#%%%%#Oo.       X8')9+      ",
"     .+e[W-+        ....ooo...        X8''9+      ",
"      Xe[W;+          .....           +8')9+      ",
"      X0[!:+                         X+q[(:X      ",
"      X:([w@X                        +=G[P-X      ",
"      X-K[I;@X                      +@9~[r@       ",
"       +9)[L:=@XXXXX++X XXXX+XXXXX+@=9Q[W;+       ",
"       X@r'[Qtq99989899899889898989qG~[~0@X       ",
"        +=e~[[]''''''['''''']''''''[[[W0@X        ",
"         X@8FW())))))))))))))))))))~Pr;+X         ",
"          X+@-:888888888888:8888888:-++X          ",
"            .X++++++X+X+++++++++++XXXX            ",
"                  X       .                       ",
"                                                  ",
"                                                  ",
"                                                  ",
"                                                  ",
"                                                  "
};
