/* XPM */
static char *result[] = {
/* columns rows colors chars-per-pixel */
"50 50 90 1 ",
"  c #010000",
". c #0B0000",
"X c #0D0D0D",
"o c #130000",
"O c #1B0000",
"+ c #121212",
"@ c #1B1B1B",
"# c #230000",
"$ c #2B0000",
"% c #340000",
"& c #3C0100",
"* c #232323",
"= c #2B2B2B",
"- c #323232",
"; c #3C3C3C",
": c #430100",
"> c #4C0100",
", c #530100",
"< c #5C0100",
"1 c #630100",
"2 c #6D0100",
"3 c #720000",
"4 c #7B0100",
"5 c #444444",
"6 c #494949",
"7 c #535353",
"8 c #5B5B5B",
"9 c #636363",
"0 c #6C6C6C",
"q c #757575",
"w c #7C7C7C",
"e c #820202",
"r c #8D0203",
"t c #920204",
"y c #9B0305",
"u c #A70104",
"i c #AA0307",
"p c #B50207",
"a c #BA0106",
"s c #C60207",
"d c #D20007",
"f c #D80007",
"g c #E30007",
"h c #EE0006",
"j c #E20108",
"k c #F50002",
"l c #FE0000",
"z c #FF0E0B",
"x c #FE110E",
"c c #FC1914",
"v c #FF1F1C",
"b c #FD211D",
"n c #FF2622",
"m c #FF2D2A",
"M c #FD322F",
"N c #FB4441",
"B c #FD4E4A",
"V c #FD514D",
"C c #FD5451",
"Z c #FE5F5C",
"A c #FE6664",
"S c #FE7E7C",
"D c #FD807D",
"F c gray53",
"G c #8C8C8C",
"H c gray59",
"J c #9B9B9B",
"K c #A4A4A4",
"L c #A9A9A9",
"P c gray71",
"I c #BCBCBC",
"U c #FD9492",
"Y c #FE9D9C",
"T c #FEA3A2",
"R c #FDACAB",
"E c #FEB3B2",
"W c #FEBFBE",
"Q c #C3C3C3",
"! c gray80",
"~ c LightGray",
"^ c gainsboro",
"/ c #FEC6C6",
"( c #FED7D7",
") c #E4E4E4",
"_ c #ECECEC",
"` c #FEE2E2",
"' c #FEECEC",
"] c #F2F2F2",
"[ c #FEF3F3",
"{ c #FFFFFF",
/* pixels */
"                                                  ",
"                                                  ",
"                                                  ",
"                                                  ",
"                                                  ",
"                     XX   X    XX                 ",
"           X++X++++++++++++++++++++++X            ",
"          +@=590q00000000000000000075*+X          ",
"        X+=9I]{{{{{{{{{{{{{{{{{{{{{{)L7*+         ",
"        +-J{{]!IIIIIIIIIIIIIIIIIIII~{{_w*+        ",
"       +*H{[J7-====*===========*===;9P{[q@X       ",
"       @9{{w=@++XXXXXXXXXXXXXXXXXX++@-J{)6+       ",
"      X=I{J=@                       X@;Q{G@X      ",
"      +5]]7@X                        X@q{!=X      ",
"      +8{!;+             .            +7[_5X      ",
"      +0{Q=+         .oo.oo..         X6]_6+      ",
"      X0{Q=+       .oOO####Ooo.       X5_]6+      ",
"      X0{Q=X     ..O#$&&:&&%#Oo..     X5]_6+      ",
"     X+0{Q=+     oO#&:,<1<<>:%#o.     X5]_6+      ",
"      X0{Q=X   ..o#&,2usspy4<>%#o.    X5]]6+      ",
"      +0{Q=X    .#%,3dllllkga3>%O.    X5]]6+      ",
"     X+0{Q=X   .o$:<alcSDCblld1&$o.   X;]_6+      ",
"      X0{Q-X   .o%>4hlR{{{`Uxke:$o.   X5]_6+      ",
"      +0{Q=X   .O&,ylM{TZY[[nkr>%O.   X5]]6+X     ",
"      +0{Q=X   oO&<ilV{AllE'vkr,%O.   X;]_6+      ",
"      +0{Q=X   oO&,ulB{Slx`(zhe,%O.   X5]]6+      ",
"      +0{Q=X   .O&>tlb'[ET{Ulf3>$O.   X5]]6+      ",
"      X0{Q-X   .o$>2jlN/'[Wblp<:#o.   X5]_6+X     ",
"     X+0{Q=+   .o#&,rhlzmmxlf3,%O.    X5]_6+      ",
"      X0{Q=X    .O$:<edhkkkd4,&#o.    X5]]6+      ",
"      +0{Q-X     oO%:,1ett41>&$Oo     X;]]6+      ",
"      X0{Q=X      oO$&>>>>>:&$O.      X5]]6+      ",
"     X+0{Q=+      .oOO#%%%$##o..      X5]]6+      ",
"      X0{Q=+        .ooOOOOoo.        X5]_6+      ",
"      +0{Q=+          .....           +6]_6+      ",
"      X7{^;+                         X+7{);X      ",
"      +;){9@X                        +*G{I=X      ",
"      X*K{I-@X                      +@6^{q@       ",
"       +6_{L;*@XXXXXXXXXXXXXXXXXXX+@*6!{Q-+       ",
"       X@q]{!w8666556666665665656568G^{^7@X       ",
"        +*0^{{[]]]]]][]]]]]]]]]]]]]{{{Q7@X        ",
"         X@5FQ________________]____^Iq-+X         ",
"          X+@=;55;55555555555555555;*++X          ",
"            XXXX++++++X+++++++++++XXXX            ",
"                  X                               ",
"                                                  ",
"                                                  ",
"                                                  ",
"                                                  ",
"                                                  "
};
