/* XPM */
static char *result[] = {
/* columns rows colors chars-per-pixel */
"50 50 92 1 ",
"  c #000100",
". c #060A03",
"X c #090E04",
"o c #0D0D0D",
"O c #0B1306",
"+ c #0E1907",
"@ c #0F1908",
"# c #111C09",
"$ c #121212",
"% c #1B1B1B",
"& c #15220B",
"* c #18270D",
"= c #1A2B0E",
"- c #1D2E10",
"; c #1F3111",
": c #213513",
"> c #253B15",
", c #232323",
"< c #2B2B2B",
"1 c #323232",
"2 c #3C3C3C",
"3 c #274016",
"4 c #2B4518",
"5 c #2E4A1A",
"6 c #314D1B",
"7 c #34531D",
"8 c #395B20",
"9 c #3C6022",
"0 c #436B26",
"q c #477028",
"w c #507E2E",
"e c #444444",
"r c #494949",
"t c #535353",
"y c #5B5B5B",
"u c #636363",
"i c #6C6C6C",
"p c #757575",
"a c #7C7C7C",
"s c #51802E",
"d c #548730",
"f c #578B31",
"g c #5B9034",
"h c #619B38",
"j c #67A33B",
"k c #6CAB3E",
"l c #72B441",
"z c #76BA44",
"x c #85D24D",
"c c #89D84F",
"v c #8BDD51",
"b c #8FE153",
"n c #93E655",
"m c #97EC59",
"M c #9AEF5D",
"N c #98F754",
"B c #9BFD53",
"V c #9BF35B",
"C c #9FFC5B",
"Z c #A3FE5E",
"A c #9DEF62",
"S c #A2EE6C",
"D c #A5FF60",
"F c #AAFF63",
"G c #ABEE7A",
"H c gray53",
"J c #8C8C8C",
"K c gray59",
"L c #9B9B9B",
"P c #A4A4A4",
"I c #A9A9A9",
"U c gray71",
"Y c #BCBCBC",
"T c #AFEF81",
"R c #BBF095",
"E c #BFF19A",
"W c #C0F19C",
"Q c #C6F2A6",
"! c #CCF3B0",
"~ c #D4F5BC",
"^ c #C3C3C3",
"/ c gray80",
"( c LightGray",
") c gainsboro",
"_ c #D8F5C3",
"` c #E5F7D8",
"' c #E4E4E4",
"] c #ECECEC",
"[ c #EDF9E5",
"{ c #F2F2F2",
"} c #F7FBF3",
"| c #FEFFFE",
/* pixels */
"                                                  ",
"                                                  ",
"                                                  ",
"                                                  ",
"                                                  ",
"                     oo   o    o...               ",
"           .$$o$$$$$$$$$$$$$$$$$$$$$$o            ",
"         .$%<euipiiiiiiiiiiiiiiiiiiy2,$o          ",
"        o$<uY{||||||||||||||||||||||'It,$         ",
"        $1L||{/YYYYYYYYYYYYYYYYYYUY(||]a,$        ",
"       $,K|}Lt2<<<,<<<<<<<<<<,<<<<12uU|}p%o       ",
"       %u||a<%$$oooooooooooooooooo$$%1L|'e$       ",
"      o<Y|L<%                       .%2^|J%o      ",
"      $e{{t%.                        o%p|/1o      ",
"      $y|/2$                         .$t}]eo      ",
"      $i|^1o         .  ....          $e{{eo      ",
"     .oi|^<$        ...XXOO...        o2{]r$.     ",
"     .oi|^<o      ..XO+#&&#@+X..      oe{{r$      ",
"      $i|^<$      ..@&-;:::-*#X.      oe{{r$      ",
"     .$i|^<o    ..X@=:370q84>-#X..    oe]{r$      ",
"     .$i|^<o    ..+*>5hnCZMl8>-#X.    oe{{r$      ",
"     .oi|^<o    .O&>5zFZNBCFv8>=+.    o2{{r$      ",
"      oi|^1o    X+=3gFBS!~GNFz4;#O    oe]{e$      ",
"      $i|^<o    O#;5cZA[|||TCC9:&+.   oe{{r$.     ",
"      $i|^<o    +&:8VBW||}|_NDs>=@.   o2{{r$      ",
"      $i|^<$    +#;8mBR||||~NZw;&#    oe{{r$      ",
"      $i|^<o    O#:5xZM`||}GCV8:&+    oe{{r$      ",
"      oi|^<o    X+=>dZZAEQSNFl4;#O    oe{]r$.     ",
"     o$i|^<$    .O&:4kZZBNZFx7>&@X    oe{]r$      ",
"      oi|^<o    ..+*>5fcVCbj7>=#X.    o2{{r$      ",
"      $i|^<o     .X+=:>67973:=&OX     oe{{r$      ",
"      oi|^1o      .X+&=;:>:;&+O.      o2{{r$      ",
"     o$i|^<$        XO+@&&#@X...      oe{{r$      ",
"      oi|^<$       .....XXX...        oe{]r$      ",
"      $i|^<$          .. .. .         $e{]r$      ",
"      ot|)2$                         o$y|'2o      ",
"      $2'|u%o                        $,J|Y<o      ",
"      o,P|Y1%o                      $%r)|p%       ",
"       $r]|I2,%ooooo$ooooooooooooo$%,r/|^1$       ",
"       o%p{|/ayrrrereerereerrreereryJ)|)t%o       ",
"        $,i)|||{{{{{{{{{{{{{{{{{{{{|||^t%o        ",
"         o%eH^']]]]]]]]]]]]]]]{]]]])Yp1$o         ",
"          o$%<2eeeeeeeeeeeeeeeeeeee2,$$o          ",
"            oooo$o$$$$$$$$$$$$$$$$oooo            ",
"                  ..                              ",
"                                                  ",
"                                                  ",
"                                                  ",
"                                                  ",
"                                                  "
};
